<svg class="c-icon c-icon--chocola" viewBox="0 0 100 100">
  <path d="M50 0a50 50 0 1 0 50 50A50 50 0 0 0 50 0zm0 94.5A44.5 44.5 0 1 1 94.5 50 44.53 44.53 0 0 1 50 94.5zm.1-52.9a8.07 8.07 0 0 1 6.2 2.8 11.76 11.76 0 0 0 19.1-13.6 9.78 9.78 0 0 1 .9 4.1 9.07 9.07 0 0 1-9.1 9.1 9.38 9.38 0 0 1-6.3-2.5l-.1-.1-.2-.2c0-.1-.1-.1-.1-.2a13.7 13.7 0 1 0 0 17.8c.2-.2.3-.4.5-.5a8.86 8.86 0 0 1 6.2-2.5 9.07 9.07 0 0 1 9.1 9.1 9.78 9.78 0 0 1-.9 4.1A11.66 11.66 0 0 0 73 54.3a11.78 11.78 0 0 0-16.7 1.3 8.2 8.2 0 0 1-6.2 2.8 8.4 8.4 0 0 1 0-16.8zm25.8 23.9a8.49 8.49 0 0 0-7.4-8.2 6.63 6.63 0 0 1 3.1 6.3c-.3 2.2-1.9 4.2-3.5 5.8a21.92 21.92 0 0 1-5.3 3.7 27.07 27.07 0 0 1-23.4 1.1A27 27 0 0 1 23.7 50a27.14 27.14 0 0 1 15.7-24.2 27.07 27.07 0 0 1 23.4 1.1 24 24 0 0 1 5.3 3.7 10.09 10.09 0 0 1 3.5 5.8 6.45 6.45 0 0 1-3.1 6.3 8.69 8.69 0 0 0 7.4-8.4 6.28 6.28 0 0 0-.3-1.9 12.69 12.69 0 0 0-2.7-4.8 12.91 12.91 0 0 0-2.1-2A32 32 0 0 0 48.4 18a31.78 31.78 0 0 0-30.3 31.6v.6A32.93 32.93 0 0 0 24 68.5a32.06 32.06 0 0 0 46.8 5.7c.8-.7 1.5-1.4 2.1-2a10.9 10.9 0 0 0 2.7-4.8 12.5 12.5 0 0 0 .3-1.9z" />
  <!-- <path d="M50 0a50 50 0 1 0 50 50A50 50 0 0 0 50 0zm20.8 74.2A32.06 32.06 0 0 1 24 68.5a32.93 32.93 0 0 1-5.9-18.3v-.6A31.78 31.78 0 0 1 48.4 18a32 32 0 0 1 22.4 7.6 12.91 12.91 0 0 1 2.1 2 12.69 12.69 0 0 1 2.7 4.8 6.28 6.28 0 0 1 .3 1.9 8.69 8.69 0 0 1-7.4 8.4 6.45 6.45 0 0 0 3.1-6.3 10.09 10.09 0 0 0-3.5-5.8 24 24 0 0 0-5.3-3.7 27.07 27.07 0 0 0-23.4-1.1A27 27 0 0 0 23.7 50a27 27 0 0 0 15.7 24.2 27.07 27.07 0 0 0 23.4-1.1 21.92 21.92 0 0 0 5.3-3.7c1.6-1.6 3.2-3.6 3.5-5.8a6.63 6.63 0 0 0-3.1-6.3 8.49 8.49 0 0 1 7.4 8.2 12.5 12.5 0 0 1-.3 1.9 10.9 10.9 0 0 1-2.7 4.8c-.6.6-1.3 1.3-2.1 2zM50.1 58.4a8.2 8.2 0 0 0 6.2-2.8A11.78 11.78 0 0 1 73 54.3 11.54 11.54 0 0 1 75.4 69a9.78 9.78 0 0 0 .9-4.1 9.07 9.07 0 0 0-9.1-9.1 8.86 8.86 0 0 0-6.2 2.5c-.2.1-.3.3-.5.5a13.7 13.7 0 1 1 0-17.8c0 .1.1.1.1.2l.2.2.1.1a9.38 9.38 0 0 0 6.3 2.5 9.07 9.07 0 0 0 9.1-9.1 9.78 9.78 0 0 0-.9-4.1 11.76 11.76 0 0 1-19.1 13.6 8.07 8.07 0 0 0-6.2-2.8 8.4 8.4 0 0 0 0 16.8z" /> -->
</svg>
