<svg class="c-icon c-icon--github" viewBox="0 0 24 24">
  <path fill="none" d="M24,24H0V0h24V24z" />
  <path d="M24 12.3c0 5.3-3.4 9.8-8.2 11.4-.6.1-.8-.3-.8-.6v-3.3c0-1.1-.4-1.9-.8-2.2 2.7-.3 5.5-1.3 5.5-5.9 0-1.3-.5-2.4-1.2-3.2.1-.3.5-1.5-.1-3.2 0 0-1-.3-3.3 1.2-1-.3-2-.4-3-.4s-2 .1-3 .4C6.7 5 5.7 5.3 5.7 5.3c-.7 1.6-.2 2.8-.1 3.1-.8.8-1.2 1.9-1.2 3.2 0 4.6 2.8 5.6 5.5 5.9-.3.3-.7.8-.8 1.6-.7.3-2.4.8-3.5-1 0 0-.6-1.2-1.8-1.2 0 0-1.2 0-.1.7 0 0 .8.4 1.3 1.8 0 0 .7 2.3 4 1.6v2c0 .3-.2.7-.8.6-4.8-1.5-8.2-6-8.2-11.3C0 5.7 5.4.3 12 .3s12 5.4 12 12z" />
</svg>
