<svg class="c-icon c-icon--twitter" viewBox="0 0 24 24">
  <path fill="none" d="M24,24H0V0h24V24z" />
  <path d="M7.6,21.7c9,0,13.9-7.5,13.9-13.9c0-0.2,0-0.4,0-0.6c1-0.7,1.8-1.6,2.4-2.5C23,5,22.1,5.3,21.1,5.4c1-0.6,1.8-1.6,2.2-2.7
  c-0.9,0.6-2,1-3.1,1.2c-0.9-1-2.2-1.5-3.6-1.5c-2.7,0-4.9,2.2-4.9,4.9c0,0.4,0,0.8,0.1,1.1C7.7,8.1,4.1,6.2,1.7,3.2
  C1.3,3.9,1.1,4.8,1.1,5.7c0,1.7,0.9,3.2,2.2,4.1C2.4,9.7,1.7,9.5,1,9.1v0.1C1,11.6,2.7,13.5,5,14c-0.4,0.1-0.8,0.2-1.3,0.2
  c-0.3,0-0.6,0-0.9-0.1c0.6,1.9,2.4,3.4,4.6,3.4c-1.7,1.3-3.8,2.1-6.1,2.1c-0.4,0-0.8,0-1.2-0.1C2.2,20.9,4.8,21.7,7.6,21.7"/>
</svg>
