<?xml version="1.0" encoding="utf-8"?>
<!-- Generator: Adobe Illustrator 15.0.0, SVG Export Plug-In . SVG Version: 6.00 Build 0)  -->
<!DOCTYPE svg PUBLIC "-//W3C//DTD SVG 1.1//EN" "http://www.w3.org/Graphics/SVG/1.1/DTD/svg11.dtd">
<svg version="1.1" id="Layer_1" xmlns="http://www.w3.org/2000/svg" xmlns:xlink="http://www.w3.org/1999/xlink" x="0px" y="0px"
	 width="670px" height="250px" viewBox="0 0 670 250" enable-background="new 0 0 670 250" xml:space="preserve">
<g>
	<g>
		<path fill="#FBFCFC" d="M341.98,64.652h-10.826c1.938-0.778,3.775-1.792,5.51-3.051c4.537-3.293,8.115-8.078,10.731-14.354
			c2.616-6.276,3.925-13.018,3.925-20.228c0-6.989-1.803-12.469-5.406-16.44c-3.605-3.97-8.701-5.956-15.288-5.956
			c-5.746,0-10.888,1.647-15.425,4.94c-4.538,3.294-8.143,7.997-10.814,14.108c-2.672,6.112-4.007,12.662-4.007,19.651
			c0,7.465,1.748,13.202,5.243,17.208c1.547,1.774,3.431,3.133,5.614,4.122h-2.283l-62.877,92.601
			c0.081-2.573,0.135-5.188,0.135-7.89c0-28.583-5.003-50.293-15.007-65.126c-6.035-8.947-13.819-15.176-23.324-18.726
			c2.62-0.63,5.163-1.544,7.623-2.756v-5.16c-5.27,2.672-10.32,4.007-15.151,4.007c-5.086,0-8.984-1.583-11.692-4.748
			c-2.709-3.165-4.062-7.768-4.062-13.806c0-1.976,0.11-3.769,0.329-5.379h1.812c11.784,0,20.667-1.738,26.651-5.215
			c5.983-3.476,8.975-8.526,8.975-15.15c0-3.843-1.244-6.879-3.732-9.112c-2.489-2.231-5.819-3.348-9.991-3.348
			c-5.489,0-10.512,1.793-15.068,5.379c-4.556,3.587-8.134,8.417-10.732,14.492c-2.599,6.075-3.897,12.424-3.897,19.047
			c0,7.173,1.775,12.763,5.325,16.77c0.47,0.531,0.968,1.021,1.487,1.482c-19.514,0.263-34.019,7.332-43.493,21.239
			c-9.658,14.178-14.485,36.213-14.485,66.111c0,7.783,0.379,15.033,1.111,21.785h-9.736V64.652H86.128L11.847,174.047v24.913
			h72.311v35.113h34.997V198.96h15.814c2.106,5.787,4.669,10.931,7.701,15.414c9.926,14.678,24.663,22.017,44.21,22.017
			c20.163,0,35.092-7.105,44.789-21.321c3.118-4.571,5.727-9.948,7.842-16.109h67.473v35.113h34.997V198.96h20.395v-27.812H341.98
			V64.652z M194.617,15.903c4.117-4.227,8.572-6.34,13.366-6.34c2.671,0,4.803,0.796,6.395,2.388
			c1.592,1.592,2.388,3.614,2.388,6.065c0,9.881-9.46,14.821-28.379,14.821h-2.69C187.526,25.775,190.5,20.13,194.617,15.903z
			 M84.737,121.551c-0.388,9.118-0.58,16.07-0.58,20.859v28.738H43.367l31.057-46.932c4.016-6.026,7.455-12.206,10.313-18.542h0.927
			C85.433,107.144,85.123,112.437,84.737,121.551z M204.957,193.861c-3.708,9.117-9.734,13.676-18.077,13.676
			c-8.5,0-14.544-4.5-18.136-13.501c-3.592-8.999-5.389-23.89-5.389-44.673c0-20.781,1.814-35.71,5.447-44.789
			c3.63-9.077,9.657-13.616,18.078-13.616c8.266,0,14.271,4.54,18.02,13.616c3.746,9.079,5.62,24.008,5.62,44.789
			C210.52,169.915,208.666,184.747,204.957,193.861z M307.563,121.551c-0.388,9.118-0.58,16.07-0.58,20.859v28.738h-40.791
			l31.057-46.932c4.016-6.026,7.454-12.206,10.313-18.542h0.927C308.258,107.144,307.949,112.437,307.563,121.551z M306.035,43.048
			c0-6.001,1.079-11.683,3.238-17.044c2.159-5.36,5.05-9.478,8.673-12.351c3.623-2.873,7.703-4.309,12.241-4.309
			c5.013,0,8.855,1.519,11.528,4.556c2.67,3.038,4.007,7.375,4.007,13.01c0,6.587-1.071,12.634-3.211,18.142
			c-2.142,5.508-5.015,9.68-8.619,12.515c-3.605,2.836-7.731,4.254-12.378,4.254C311.195,61.821,306.035,55.563,306.035,43.048z
			 M227.625,65.444l5.49-26.403c1.17-5.452,3-10.521,5.489-15.205c2.488-4.684,5.288-8.197,8.399-10.539
			c3.11-2.342,6.386-3.513,9.826-3.513c2.416,0,4.482,0.274,6.203,0.823l1.153-5.105c-1.977-0.512-4.227-0.769-6.752-0.769
			c-2.453,0-4.712,0.421-6.78,1.263s-4.016,2.022-5.846,3.541c-1.831,1.519-4.081,3.999-6.752,7.438h-0.329l1.592-11.198h-4.391
			l-12.681,59.668H227.625z M265.979,65.444l5.489-26.403c1.17-5.452,3-10.521,5.489-15.205c2.488-4.684,5.288-8.197,8.398-10.539
			c3.11-2.342,6.386-3.513,9.826-3.513c2.415,0,4.482,0.274,6.203,0.823l1.153-5.105c-1.976-0.512-4.227-0.769-6.752-0.769
			c-2.452,0-4.712,0.421-6.779,1.263c-2.068,0.842-4.017,2.022-5.847,3.541c-1.83,1.519-4.081,3.999-6.751,7.438h-0.329
			l1.591-11.198h-4.391L260.6,65.444H265.979z M351.159,120.191h2.814V108.42c0-1.668-0.038-3.203-0.113-4.606l-0.085-2.388h0.198
			c2.179,3.564,5.647,5.345,10.406,5.345c3.98,0,7.122-1.397,9.425-4.193c2.303-2.795,3.454-6.733,3.454-11.813
			c0-5.231-1.094-9.216-3.283-11.955c-2.189-2.739-5.37-4.108-9.539-4.108c-4.662,0-8.057,1.668-10.178,5.004h-0.171l-0.54-4.407
			h-2.389V120.191z M353.974,89.912c0-4.473,0.843-7.7,2.531-9.681c1.686-1.98,4.33-2.971,7.932-2.971
			c6.558,0,9.838,4.54,9.838,13.619c0,4.227-0.867,7.516-2.602,9.866c-1.734,2.351-4.186,3.525-7.35,3.525
			c-3.659,0-6.298-1.033-7.918-3.099c-1.621-2.065-2.432-5.516-2.432-10.349V89.912z M392.31,106.771
			c2.237,0,4.176-0.412,5.815-1.237c1.639-0.824,3.235-2.232,4.79-4.222h0.228l0.71,4.891h2.076V85.647
			c0-3.733-0.838-6.482-2.516-8.245s-4.214-2.644-7.606-2.644c-3.316,0-6.672,0.796-10.064,2.388l1.052,2.445
			c3.07-1.592,6.037-2.388,8.899-2.388c2.653,0,4.577,0.749,5.771,2.246c1.194,1.498,1.791,3.715,1.791,6.653v2.047l-5.886,0.171
			c-4.757,0.095-8.391,0.977-10.902,2.644c-2.512,1.668-3.768,4.009-3.768,7.022c0,2.749,0.844,4.9,2.53,6.454
			C386.917,105.995,389.277,106.771,392.31,106.771z M388.458,92.741c1.849-1.146,4.941-1.824,9.282-2.033l5.402-0.228v3.042
			c0,3.355-0.952,5.976-2.856,7.861c-1.905,1.886-4.508,2.829-7.806,2.829c-2.161,0-3.834-0.535-5.018-1.606
			c-1.185-1.07-1.777-2.573-1.777-4.506C385.686,95.674,386.61,93.888,388.458,92.741z M399.319,66.001
			c1.639-1.629,2.799-2.938,3.481-3.923v-0.483h-4.009c-0.492,0.91-1.416,2.242-2.771,3.995c-1.355,1.754-2.726,3.379-4.109,4.876
			v0.455h1.99C395.873,69.271,397.68,67.632,399.319,66.001z M432.058,117.533c2.645-1.772,3.966-4.289,3.966-7.548
			c0-2.654-0.891-4.658-2.672-6.013c-1.782-1.355-4.351-2.033-7.705-2.033h-5.402c-1.763,0-3.019-0.227-3.767-0.682
			c-0.75-0.455-1.123-1.175-1.123-2.161c0-0.891,0.294-1.734,0.881-2.53c0.588-0.796,1.44-1.488,2.56-2.076
			c0.568,0.114,1.554,0.17,2.956,0.17c3.336,0,5.995-0.924,7.976-2.772c1.979-1.848,2.971-4.259,2.971-7.236
			c0-2.539-0.853-4.871-2.559-6.994l6.396-0.398v-1.961h-9.894c-1.118-0.398-2.691-0.597-4.72-0.597c-3.336,0-5.984,0.934-7.946,2.8
			c-1.962,1.868-2.942,4.346-2.942,7.435c0,2.047,0.502,3.862,1.507,5.444c1.004,1.583,2.407,2.744,4.207,3.483
			c-2.634,1.574-3.951,3.393-3.951,5.459c0,0.948,0.279,1.787,0.838,2.516c0.559,0.73,1.304,1.293,2.232,1.691
			c-2.256,0.512-4.042,1.47-5.359,2.872c-1.318,1.403-1.976,3.166-1.976,5.288c0,2.673,1.065,4.758,3.198,6.255
			c2.132,1.498,5.142,2.246,9.026,2.246C425.646,120.191,429.414,119.305,432.058,117.533z M416.051,90.495
			c-1.45-1.317-2.175-3.17-2.175-5.558c0-2.521,0.706-4.487,2.118-5.9c1.411-1.412,3.35-2.118,5.814-2.118
			c2.539,0,4.516,0.659,5.928,1.976c1.411,1.318,2.118,3.294,2.118,5.928c0,2.483-0.688,4.378-2.062,5.686
			c-1.375,1.308-3.351,1.962-5.928,1.962C419.438,92.471,417.501,91.812,416.051,90.495z M411.516,111.434
			c0-4.454,2.834-6.681,8.501-6.681h5.062c2.843,0,4.899,0.417,6.169,1.251c1.271,0.834,1.905,2.18,1.905,4.037
			c0,5.175-4.057,7.762-12.169,7.762C414.672,117.803,411.516,115.68,411.516,111.434z M441.156,63.982
			c-1.193,0-1.791,0.91-1.791,2.729c0,1.839,0.598,2.758,1.791,2.758c0.587,0,1.047-0.246,1.378-0.739
			c0.332-0.492,0.499-1.166,0.499-2.019c0-0.872-0.167-1.544-0.499-2.019C442.203,64.22,441.743,63.982,441.156,63.982z
			 M439.764,106.203h2.814V75.298h-2.814V106.203z M464.437,74.701c-5.137,0-8.71,1.611-10.719,4.833h-0.171l-0.54-4.236h-2.389
			v30.905h2.815V89.144c0-4.188,0.857-7.216,2.572-9.083c1.716-1.867,4.422-2.801,8.117-2.801c2.749,0,4.776,0.707,6.085,2.118
			c1.308,1.413,1.962,3.673,1.962,6.781v20.044h2.786V85.988C474.956,78.464,471.449,74.701,464.437,74.701z M488.474,106.771
			c2.237,0,4.174-0.412,5.814-1.237c1.639-0.824,3.236-2.232,4.791-4.222h0.228l0.71,4.891h2.076V85.647
			c0-3.733-0.839-6.482-2.517-8.245s-4.213-2.644-7.605-2.644c-3.316,0-6.672,0.796-10.064,2.388l1.052,2.445
			c3.07-1.592,6.037-2.388,8.899-2.388c2.653,0,4.577,0.749,5.771,2.246c1.194,1.498,1.791,3.715,1.791,6.653v2.047l-5.886,0.171
			c-4.757,0.095-8.393,0.977-10.903,2.644c-2.512,1.668-3.767,4.009-3.767,7.022c0,2.749,0.844,4.9,2.53,6.454
			C483.081,105.995,485.441,106.771,488.474,106.771z M484.621,92.741c1.849-1.146,4.942-1.824,9.283-2.033l5.402-0.228v3.042
			c0,3.355-0.953,5.976-2.857,7.861c-1.905,1.886-4.507,2.829-7.805,2.829c-2.161,0-3.835-0.535-5.019-1.606
			c-1.186-1.07-1.776-2.573-1.776-4.506C481.85,95.674,482.773,93.888,484.621,92.741z M530.787,91.248
			c0-3.753,0.54-6.439,1.621-8.06c1.08-1.621,2.833-2.431,5.26-2.431c1.781,0,3.08,0.574,3.895,1.72
			c0.815,1.147,1.223,2.867,1.223,5.16v18.566h8.672V85.477c0-3.771-0.957-6.657-2.872-8.657c-1.914-2-4.72-3-8.415-3
			c-2.161,0-4.09,0.394-5.786,1.18c-1.696,0.787-3.028,1.948-3.995,3.483h-0.482l-1.166-4.065h-6.625v31.786h8.672V91.248z
			 M566.378,68.688c0.541-0.502,1.104-0.753,1.692-0.753c0.682,0,1.374,0.156,2.075,0.469c0.701,0.313,1.417,0.654,2.146,1.024
			s1.469,0.71,2.218,1.023c0.749,0.312,1.512,0.469,2.289,0.469c2.198,0,3.984-0.777,5.359-2.332
			c1.374-1.554,2.165-3.705,2.373-6.454h-4.235c-0.247,1.024-0.64,1.782-1.181,2.275c-0.54,0.493-1.104,0.739-1.691,0.739
			c-0.683,0-1.374-0.151-2.075-0.455c-0.701-0.303-1.417-0.64-2.146-1.009s-1.47-0.711-2.218-1.023
			c-0.749-0.313-1.512-0.469-2.289-0.469c-2.236,0-4.032,0.777-5.388,2.331c-1.355,1.555-2.137,3.706-2.346,6.454h4.236
			C565.445,69.953,565.838,69.19,566.378,68.688z M567.075,106.771c2.482,0,4.497-0.355,6.041-1.066
			c1.545-0.711,3.047-1.985,4.507-3.824h0.228l1.677,4.322h6.057V85.021c0-3.79-1.138-6.614-3.412-8.472
			c-2.274-1.857-5.544-2.787-9.809-2.787c-4.454,0-8.511,0.958-12.169,2.872l2.872,5.857c3.431-1.535,6.416-2.303,8.955-2.303
			c3.299,0,4.947,1.611,4.947,4.833v1.393l-5.516,0.171c-4.757,0.17-8.316,1.057-10.676,2.658c-2.359,1.602-3.54,4.09-3.54,7.463
			c0,3.223,0.877,5.706,2.63,7.449C561.621,105.9,564.023,106.771,567.075,106.771z M567.984,92.954
			c1.232-0.833,3.108-1.289,5.63-1.365l3.354-0.114v2.616c0,1.915-0.602,3.45-1.805,4.606c-1.204,1.156-2.811,1.734-4.819,1.734
			c-2.806,0-4.208-1.222-4.208-3.667C566.137,95.058,566.753,93.789,567.984,92.954z M598.588,104.767
			c2.332,1.336,5.022,2.004,8.075,2.004c4.871,0,8.671-1.459,11.4-4.378c2.729-2.918,4.094-6.966,4.094-12.14
			c0-3.335-0.625-6.245-1.876-8.729c-1.251-2.482-3.042-4.387-5.373-5.714c-2.332-1.327-5.023-1.99-8.075-1.99
			c-4.909,0-8.719,1.441-11.429,4.321c-2.712,2.882-4.066,6.919-4.066,12.112c0,3.336,0.626,6.255,1.877,8.757
			S596.257,103.431,598.588,104.767z M601.716,83.159c1.023-1.563,2.69-2.345,5.004-2.345c2.331,0,4.009,0.787,5.032,2.36
			c1.023,1.573,1.535,3.933,1.535,7.079c0,3.166-0.508,5.549-1.521,7.15c-1.015,1.602-2.677,2.402-4.989,2.402
			c-2.331,0-4.015-0.805-5.047-2.417c-1.033-1.61-1.549-3.989-1.549-7.136C600.181,87.088,600.692,84.723,601.716,83.159z
			 M363.641,122.342c-4.701,0-8.383,1.455-11.046,4.365c-2.663,2.909-3.994,7.026-3.994,12.353c0,5.175,1.439,9.174,4.321,11.998
			c2.881,2.824,6.881,4.236,11.998,4.236c2.482,0,4.587-0.184,6.312-0.554c1.725-0.369,3.345-0.935,4.862-1.692v-6.71
			c-1.858,0.872-3.64,1.507-5.346,1.905c-1.705,0.397-3.517,0.597-5.43,0.597c-2.465,0-4.379-0.691-5.743-2.075
			c-1.365-1.384-2.096-3.308-2.189-5.771h20.499v-4.208c0-4.512-1.251-8.046-3.753-10.605
			C371.63,123.622,368.133,122.342,363.641,122.342z M357.585,135.222c0.151-2.143,0.748-3.795,1.791-4.961
			c1.042-1.165,2.482-1.749,4.321-1.749c1.838,0,3.298,0.584,4.379,1.749c1.08,1.166,1.639,2.818,1.677,4.961H357.585z
			 M399.221,122.342c-2.161,0-4.09,0.394-5.785,1.18c-1.697,0.788-3.028,1.947-3.995,3.482h-0.483l-1.166-4.065h-6.624v31.786h8.671
			v-14.955c0-3.753,0.54-6.438,1.621-8.06c1.08-1.62,2.833-2.432,5.26-2.432c1.781,0,3.08,0.574,3.895,1.721
			c0.815,1.146,1.223,2.866,1.223,5.159v18.566h8.672v-20.727c0-3.772-0.957-6.657-2.872-8.657
			C405.722,123.343,402.917,122.342,399.221,122.342z M432.068,129.336c1.175,0,2.35,0.177,3.525,0.527
			c1.175,0.351,2.445,0.8,3.81,1.35l2.559-6.71c-2.919-1.44-6.217-2.161-9.894-2.161c-5.023,0-8.88,1.427-11.572,4.28
			c-2.691,2.853-4.037,6.979-4.037,12.381c0,10.86,4.947,16.291,14.842,16.291c2.18,0,3.984-0.171,5.416-0.512
			c1.431-0.342,2.848-0.957,4.25-1.849v-7.42c-1.421,0.947-2.843,1.645-4.265,2.091c-1.421,0.445-2.966,0.667-4.634,0.667
			c-4.512,0-6.767-3.108-6.767-9.326C425.302,132.539,427.557,129.336,432.068,129.336z M467.366,124.333
			c-2.331-1.326-5.022-1.99-8.074-1.99c-4.909,0-8.719,1.441-11.43,4.321c-2.71,2.882-4.065,6.919-4.065,12.112
			c0,3.336,0.626,6.255,1.877,8.757s3.042,4.422,5.373,5.758c2.331,1.337,5.022,2.004,8.074,2.004c4.871,0,8.672-1.46,11.401-4.379
			s4.094-6.966,4.094-12.14c0-3.336-0.625-6.246-1.876-8.729C471.489,127.563,469.698,125.659,467.366,124.333z M464.224,145.927
			c-1.014,1.602-2.676,2.401-4.988,2.401c-2.332,0-4.015-0.806-5.048-2.417c-1.033-1.61-1.549-3.989-1.549-7.136
			c0-3.166,0.512-5.529,1.536-7.093c1.023-1.563,2.691-2.347,5.004-2.347c2.331,0,4.009,0.787,5.032,2.359
			c1.023,1.573,1.535,3.934,1.535,7.08C465.746,141.94,465.238,144.325,464.224,145.927z M499.107,131
			c0.813,1.146,1.222,2.866,1.222,5.159v18.566H509v-20.727c0-3.772-0.957-6.657-2.871-8.657c-1.914-1.999-4.72-3-8.415-3
			c-2.161,0-4.09,0.394-5.786,1.18c-1.697,0.788-3.027,1.947-3.994,3.482h-0.483l-1.166-4.065h-6.624v31.786h8.672v-14.955
			c0-3.753,0.54-6.438,1.62-8.06c1.08-1.62,2.833-2.432,5.26-2.432C496.993,129.279,498.291,129.854,499.107,131z M535.735,147.39
			c-2.123,0.664-3.942,0.995-5.459,0.995c-1.138,0-2.052-0.294-2.743-0.881c-0.692-0.588-1.038-1.498-1.038-2.729V129.45h8.898
			v-6.511h-8.898v-6.767h-5.544l-2.502,6.71l-4.776,2.9v3.667h4.15v15.324c0,3.506,0.792,6.137,2.374,7.891
			c1.583,1.753,4.108,2.629,7.577,2.629c3.146,0,5.8-0.483,7.961-1.45V147.39z M549.199,128.284h-0.427l-1.279-5.345h-6.567v31.786
			h8.672v-16.178c0-2.559,0.772-4.549,2.316-5.971c1.545-1.422,3.701-2.132,6.469-2.132c1.004,0,1.857,0.095,2.559,0.284
			l0.654-8.131c-0.777-0.17-1.754-0.256-2.929-0.256c-1.972,0-3.796,0.545-5.474,1.635
			C551.517,125.068,550.185,126.502,549.199,128.284z M583.476,150.403l1.678,4.322h6.056v-21.182c0-3.791-1.137-6.615-3.411-8.472
			s-5.544-2.786-9.81-2.786c-4.454,0-8.51,0.958-12.168,2.872l2.871,5.856c3.43-1.535,6.415-2.303,8.956-2.303
			c3.298,0,4.947,1.61,4.947,4.833v1.393l-5.516,0.171c-4.759,0.171-8.316,1.058-10.676,2.659c-2.36,1.602-3.54,4.089-3.54,7.463
			c0,3.222,0.877,5.705,2.63,7.448c1.752,1.744,4.155,2.616,7.207,2.616c2.483,0,4.496-0.354,6.042-1.065
			c1.545-0.711,3.046-1.986,4.506-3.825H583.476z M582.595,142.613c0,1.914-0.602,3.45-1.806,4.606
			c-1.204,1.155-2.811,1.733-4.819,1.733c-2.805,0-4.207-1.222-4.207-3.667c0-1.706,0.614-2.976,1.848-3.81
			c1.232-0.834,3.108-1.289,5.63-1.365l3.354-0.113V142.613z M609.188,122.342c-3.81,0-6.8,1.455-8.971,4.365
			c-2.17,2.909-3.255,6.97-3.255,12.182c0,5.137,1.066,9.155,3.198,12.055c2.133,2.9,5.065,4.351,8.8,4.351
			c4.037,0,7.041-1.563,9.013-4.691h0.369l1.678,4.123h6.653v-44.239h-8.7v10.179c0,1.858,0.218,3.971,0.653,6.34h-0.284
			C616.239,123.897,613.188,122.342,609.188,122.342z M618.57,139.884c-0.095,3.09-0.658,5.279-1.691,6.567
			c-1.033,1.289-2.658,1.934-4.876,1.934c-2.009,0-3.554-0.78-4.634-2.345c-1.081-1.563-1.621-3.91-1.621-7.037
			c0-3.128,0.535-5.511,1.606-7.149c1.071-1.64,2.573-2.461,4.507-2.461c2.369,0,4.079,0.739,5.131,2.218
			c1.053,1.479,1.578,3.924,1.578,7.335V139.884z M640.56,155.294c2.482,0,4.497-0.354,6.041-1.065
			c1.545-0.711,3.047-1.986,4.507-3.825h0.228l1.678,4.322h6.056v-21.182c0-3.791-1.138-6.615-3.412-8.472s-5.544-2.786-9.809-2.786
			c-4.454,0-8.511,0.958-12.169,2.872l2.872,5.856c3.431-1.535,6.416-2.303,8.956-2.303c3.298,0,4.946,1.61,4.946,4.833v1.393
			l-5.516,0.171c-4.757,0.171-8.315,1.058-10.676,2.659c-2.359,1.602-3.54,4.089-3.54,7.463c0,3.222,0.877,5.705,2.63,7.448
			C635.105,154.422,637.508,155.294,640.56,155.294z M641.469,141.477c1.232-0.834,3.109-1.289,5.63-1.365l3.354-0.113v2.615
			c0,1.914-0.602,3.45-1.805,4.606c-1.204,1.155-2.811,1.733-4.819,1.733c-2.806,0-4.208-1.222-4.208-3.667
			C639.621,143.58,640.237,142.311,641.469,141.477z M504.314,216.961l-1.62-1.393l-10.32,10.377l-0.058,0.739l7.222,11.885
			l1.82-1.109l-6.057-10.946L504.314,216.961z M512.93,215.568l-10.292,10.377l-0.058,0.739l7.222,11.885l1.791-1.109l-5.941-10.946
			l8.927-9.553L512.93,215.568z M550.697,211.161l-11.543,20.84c-1.479,2.673-2.701,5.099-3.667,7.278h-0.171
			c-0.133-1.687-0.445-4.094-0.938-7.221l-3.07-20.897h-2.872l4.891,30.905h3.213l17.059-30.905H550.697z M567.972,210.564
			c-2.976,0-5.639,0.853-7.989,2.559s-4.218,4.142-5.602,7.307c-1.383,3.165-2.075,6.559-2.075,10.179
			c0,3.866,0.905,6.839,2.716,8.914c1.81,2.075,4.459,3.112,7.946,3.112c3.07,0,5.781-0.854,8.131-2.559
			c2.351-1.706,4.203-4.184,5.559-7.435c1.355-3.25,2.033-6.743,2.033-10.478c0-3.62-0.934-6.458-2.801-8.515
			C574.022,211.594,571.383,210.564,567.972,210.564z M574.127,231.505c-1.109,2.853-2.597,5.014-4.464,6.482
			s-4.004,2.202-6.411,2.202c-5.345,0-8.018-3.241-8.018-9.724c0-3.108,0.559-6.05,1.678-8.827c1.118-2.776,2.615-4.909,4.492-6.396
			c1.876-1.488,3.989-2.233,6.34-2.233c2.597,0,4.587,0.787,5.971,2.36s2.075,3.819,2.075,6.738
			C575.79,225.519,575.235,228.652,574.127,231.505z M591.811,197.827l-9.496,44.239h2.672l9.496-44.239H591.811z M597.719,236.181
			c0-1.232,0.209-2.786,0.626-4.663l3.838-18.054h8.046l0.512-2.303h-8.131l1.563-7.278h-1.563l-2.758,7.193l-5.231,0.483
			l-0.398,1.904h5.175l-3.668,17.258c-0.55,2.521-0.824,4.474-0.824,5.857c0,1.971,0.512,3.474,1.535,4.507s2.474,1.549,4.351,1.549
			c1.308,0,2.918-0.266,4.833-0.796v-2.445c-1.592,0.493-3.033,0.739-4.321,0.739C598.913,240.133,597.719,238.815,597.719,236.181z
			 M631.887,216.904h-0.171c-0.892-4.151-3.535-6.227-7.932-6.227c-2.882,0-5.512,0.925-7.89,2.773
			c-2.379,1.848-4.279,4.467-5.701,7.86c-1.421,3.393-2.132,6.956-2.132,10.689c0,7.089,2.662,10.634,7.989,10.634
			c2.54,0,4.786-0.721,6.738-2.161c1.951-1.44,3.725-3.506,5.316-6.198h0.171l-1.279,7.791h2.331l6.511-30.905h-2.274
			L631.887,216.904z M629.328,227.055c-0.701,2.388-1.72,4.567-3.057,6.539c-1.336,1.971-2.843,3.544-4.521,4.72
			c-1.678,1.175-3.359,1.763-5.046,1.763c-1.916,0-3.346-0.677-4.294-2.032c-0.947-1.355-1.421-3.475-1.421-6.355
			c0-3.07,0.606-6.154,1.819-9.253c1.213-3.1,2.768-5.427,4.663-6.981c1.895-1.554,4.018-2.331,6.368-2.331
			c1.439,0,2.645,0.347,3.61,1.039c0.967,0.691,1.696,1.63,2.189,2.814s0.739,2.524,0.739,4.021
			C630.38,222.647,630.028,224.666,629.328,227.055z M656.065,210.621c-1.27,0-2.44,0.218-3.511,0.654
			c-1.071,0.436-2.08,1.048-3.028,1.834c-0.947,0.787-2.113,2.07-3.497,3.852h-0.17l0.824-5.8h-2.274l-6.567,30.905h2.786
			l2.843-13.676c0.606-2.824,1.555-5.449,2.843-7.876c1.289-2.426,2.739-4.245,4.351-5.458c1.611-1.214,3.308-1.82,5.089-1.82
			c1.251,0,2.322,0.143,3.213,0.427l0.597-2.645C658.539,210.754,657.374,210.621,656.065,210.621z"/>
	</g>
</g>
</svg>
